ISO-10303-21;
HEADER;
FILE_DESCRIPTION(
  ('This file contains a STEP AP42 implementation'
    ,'as created by ZW3D STEP Interface translator.'
    ,'')
  ,'2;1'
  );
FILE_NAME(
  'MaixCAMÖ§¼Ü.stp'
  ,'26 712.11 418',
  (''),
  ('ZWCAD Software Co.'),
  'Version 1.0',
  'ZW3D to STEP translator',
  ''
  );
FILE_SCHEMA(('AUTOMOTIVE_DESIGN { 1 0 10303 214 1 1 1 1 }'));
ENDSEC;

DATA;

/**File Base Unit**/
#1=(LENGTH_UNIT()NAMED_UNIT(*)SI_UNIT(.MILLI.,.METRE.));
#2=(NAMED_UNIT(*)PLANE_ANGLE_UNIT()SI_UNIT($,.RADIAN.));
#3=(NAMED_UNIT(*)SI_UNIT($,.STERADIAN.)SOLID_ANGLE_UNIT());
#4=UNCERTAINTY_MEASURE_WITH_UNIT(LENGTH_MEASURE(0.01),#1,'DISTANCE_ACCURACY_VALUE','Maximum Tolerance applied to model');
#5=(GEOMETRIC_REPRESENTATION_CONTEXT(3)GLOBAL_UNCERTAINTY_ASSIGNED_CONTEXT((#4))GLOBAL_UNIT_ASSIGNED_CONTEXT((#1,#2,#3))REPRESENTATION_CONTEXT('STEP 203','TOP_LEVEL_ASSEMBLY_PART'));

/**product_definition_shape**/
#6=APPLICATION_CONTEXT('mechanical parts and assemblies' );
#7=DESIGN_CONTEXT('NONE',#6,'design');
#8=MECHANICAL_CONTEXT('NONE',#6,'mechanical');
#9=PRODUCT('0','Part','',(#8));
#10=PRODUCT_DEFINITION_FORMATION_WITH_SPECIFIED_SOURCE('ANY','',#9,.NOT_KNOWN.);
#11=PRODUCT_DEFINITION('UNKNOWN','',#10,#7);
#12=PRODUCT_DEFINITION_SHAPE('NONE','NONE',#11);
#13=PRODUCT_RELATED_PRODUCT_CATEGORY('detail','',(#9));
/**geometry information**/
#14=CARTESIAN_POINT('',(0.,0.,0.));
#15=DIRECTION('',(0.,0.,1.));
#16=DIRECTION('',(1.,0.,0.));
#17=AXIS2_PLACEMENT_3D('',#14,#15,#16);
#18=SHAPE_REPRESENTATION('none',(#17),#5);
#19=SHAPE_DEFINITION_REPRESENTATION(#12,#18);
#20=CARTESIAN_POINT('',(22.000000013569,9.308669669653,1.5));
#21=DIRECTION('',(-1.,0.,0.));
#22=DIRECTION('',(0.,1.,-0.));
#23=AXIS2_PLACEMENT_3D('',#20,#22,#21);
#24=PLANE('',#23);
#25=CARTESIAN_POINT('',(27.000000013569,9.308669669653,0.));
#26=VERTEX_POINT('',#25);
#27=CARTESIAN_POINT('',(17.000000013569,9.308669669653,0.));
#28=VERTEX_POINT('',#27);
#29=CARTESIAN_POINT('',(27.000000013569,9.308669669653,0.));
#30=DIRECTION('',(-1.,0.,0.));
#31=VECTOR('',#30,10.);
#32=LINE('',#29,#31);
#33=EDGE_CURVE('',#26,#28,#32,.T.);
#34=ORIENTED_EDGE('E7',*,*,#33,.T.);
#35=CARTESIAN_POINT('',(17.000000013569,9.308669669653,3.));
#36=VERTEX_POINT('',#35);
#37=CARTESIAN_POINT('',(17.000000013569,9.308669669653,0.));
#38=DIRECTION('',(0.,0.,1.));
#39=VECTOR('',#38,3.);
#40=LINE('',#37,#39);
#41=EDGE_CURVE('',#28,#36,#40,.T.);
#42=ORIENTED_EDGE('E31',*,*,#41,.T.);
#43=CARTESIAN_POINT('',(27.000000013569,9.308669669653,3.));
#44=VERTEX_POINT('',#43);
#45=CARTESIAN_POINT('',(27.000000013569,9.308669669653,3.));
#46=DIRECTION('',(-1.,0.,0.));
#47=VECTOR('',#46,10.);
#48=LINE('',#45,#47);
#49=EDGE_CURVE('',#44,#36,#48,.T.);
#50=ORIENTED_EDGE('E19',*,*,#49,.F.);
#51=CARTESIAN_POINT('',(27.000000013569,9.308669669653,0.));
#52=DIRECTION('',(0.,0.,1.));
#53=VECTOR('',#52,3.);
#54=LINE('',#51,#53);
#55=EDGE_CURVE('',#26,#44,#54,.T.);
#56=ORIENTED_EDGE('E30',*,*,#55,.F.);
#57=EDGE_LOOP('',(#34,#42,#50,#56));
#58=FACE_OUTER_BOUND('',#57,.T.);
#59=ADVANCED_FACE('F9',(#58),#24,.T.);
#60=CARTESIAN_POINT('',(17.000000013569,0.65416684128096,7.));
#61=DIRECTION('',(0.,-1.,0.));
#62=DIRECTION('',(-1.,0.,0.));
#63=AXIS2_PLACEMENT_3D('',#60,#62,#61);
#64=PLANE('',#63);
#65=CARTESIAN_POINT('',(17.000000013569,-7.9503359735225,3.));
#66=VERTEX_POINT('',#65);
#67=CARTESIAN_POINT('',(17.000000013569,9.308669669653,3.));
#68=DIRECTION('',(0.,-1.,0.));
#69=VECTOR('',#68,17.259005643175);
#70=LINE('',#67,#69);
#71=EDGE_CURVE('',#36,#66,#70,.T.);
#72=ORIENTED_EDGE('E20',*,*,#71,.F.);
#73=ORIENTED_EDGE('E20',*,*,#41,.F.);
#74=CARTESIAN_POINT('',(17.000000013569,-8.000335987091,0.));
#75=VERTEX_POINT('',#74);
#76=CARTESIAN_POINT('',(17.000000013569,9.308669669653,0.));
#77=DIRECTION('',(0.,-1.,0.));
#78=VECTOR('',#77,17.309005656744);
#79=LINE('',#76,#78);
#80=EDGE_CURVE('',#28,#75,#79,.T.);
#81=ORIENTED_EDGE('E8',*,*,#80,.T.);
#82=CARTESIAN_POINT('',(17.000000013569,-8.0003359870911,6.));
#83=VERTEX_POINT('',#82);
#84=CARTESIAN_POINT('',(17.000000013569,-8.0003359870911,0.));
#85=DIRECTION('',(0.,2.9605947323338E-16,1.));
#86=VECTOR('',#85,6.);
#87=LINE('',#84,#86);
#88=EDGE_CURVE('',#75,#83,#87,.T.);
#89=ORIENTED_EDGE('E32',*,*,#88,.T.);
#90=CARTESIAN_POINT('',(17.000000013569,-7.9503359735225,6.));
#91=VERTEX_POINT('',#90);
#92=CARTESIAN_POINT('',(17.000000013569,-8.0003359870911,6.));
#93=DIRECTION('',(0.,1.,0.));
#94=VECTOR('',#93,0.050000013568597);
#95=LINE('',#92,#94);
#96=EDGE_CURVE('',#83,#91,#95,.T.);
#97=ORIENTED_EDGE('E134',*,*,#96,.T.);
#98=CARTESIAN_POINT('',(17.000000013569,-7.9503359735225,3.));
#99=DIRECTION('',(0.,-2.9605947323338E-16,1.));
#100=VECTOR('',#99,3.);
#101=LINE('',#98,#100);
#102=EDGE_CURVE('',#66,#91,#101,.T.);
#103=ORIENTED_EDGE('E129',*,*,#102,.F.);
#104=EDGE_LOOP('',(#72,#73,#81,#89,#97,#103));
#105=FACE_OUTER_BOUND('',#104,.T.);
#106=ADVANCED_FACE('F10',(#105),#64,.T.);
#107=CARTESIAN_POINT('',(-17.000000013569,0.65416684128096,7.));
#108=DIRECTION('',(0.,1.,0.));
#109=DIRECTION('',(1.,0.,0.));
#110=AXIS2_PLACEMENT_3D('',#107,#109,#108);
#111=PLANE('',#110);
#112=CARTESIAN_POINT('',(-17.000000013569,-8.0003359870911,0.));
#113=VERTEX_POINT('',#112);
#114=CARTESIAN_POINT('',(-17.000000013569,9.308669669653,0.));
#115=VERTEX_POINT('',#114);
#116=CARTESIAN_POINT('',(-17.000000013569,-8.0003359870911,0.));
#117=DIRECTION('',(0.,1.,0.));
#118=VECTOR('',#117,17.309005656744);
#119=LINE('',#116,#118);
#120=EDGE_CURVE('',#113,#115,#119,.T.);
#121=ORIENTED_EDGE('E10',*,*,#120,.T.);
#122=CARTESIAN_POINT('',(-17.000000013569,9.308669669653,3.));
#123=VERTEX_POINT('',#122);
#124=CARTESIAN_POINT('',(-17.000000013569,9.308669669653,0.));
#125=DIRECTION('',(0.,0.,1.));
#126=VECTOR('',#125,3.);
#127=LINE('',#124,#126);
#128=EDGE_CURVE('',#115,#123,#127,.T.);
#129=ORIENTED_EDGE('E34',*,*,#128,.T.);
#130=CARTESIAN_POINT('',(-17.000000013569,-7.9503359735225,3.));
#131=VERTEX_POINT('',#130);
#132=CARTESIAN_POINT('',(-17.000000013569,-7.9503359735225,3.));
#133=DIRECTION('',(0.,1.,0.));
#134=VECTOR('',#133,17.259005643175);
#135=LINE('',#132,#134);
#136=EDGE_CURVE('',#131,#123,#135,.T.);
#137=ORIENTED_EDGE('E92',*,*,#136,.F.);
#138=CARTESIAN_POINT('',(-17.000000013569,-7.9503359735225,6.));
#139=VERTEX_POINT('',#138);
#140=CARTESIAN_POINT('',(-17.000000013569,-7.9503359735225,3.));
#141=DIRECTION('',(0.,-2.9605947323338E-16,1.));
#142=VECTOR('',#141,3.);
#143=LINE('',#140,#142);
#144=EDGE_CURVE('',#131,#139,#143,.T.);
#145=ORIENTED_EDGE('E121',*,*,#144,.T.);
#146=CARTESIAN_POINT('',(-17.000000013569,-8.000335987091,6.));
#147=VERTEX_POINT('',#146);
#148=CARTESIAN_POINT('',(-17.000000013569,-7.9503359735225,6.));
#149=DIRECTION('',(0.,-1.,0.));
#150=VECTOR('',#149,0.050000013568594);
#151=LINE('',#148,#150);
#152=EDGE_CURVE('',#139,#147,#151,.T.);
#153=ORIENTED_EDGE('E127',*,*,#152,.T.);
#154=CARTESIAN_POINT('',(-17.000000013569,-8.000335987091,0.));
#155=DIRECTION('',(0.,0.,1.));
#156=VECTOR('',#155,6.);
#157=LINE('',#154,#156);
#158=EDGE_CURVE('',#113,#147,#157,.T.);
#159=ORIENTED_EDGE('E33',*,*,#158,.F.);
#160=EDGE_LOOP('',(#121,#129,#137,#145,#153,#159));
#161=FACE_OUTER_BOUND('',#160,.T.);
#162=ADVANCED_FACE('F12',(#161),#111,.T.);
#163=CARTESIAN_POINT('',(-22.000000013569,9.308669669653,1.5));
#164=DIRECTION('',(-1.,0.,0.));
#165=DIRECTION('',(0.,1.,-0.));
#166=AXIS2_PLACEMENT_3D('',#163,#165,#164);
#167=PLANE('',#166);
#168=CARTESIAN_POINT('',(-27.000000013569,9.308669669653,0.));
#169=VERTEX_POINT('',#168);
#170=CARTESIAN_POINT('',(-17.000000013569,9.308669669653,0.));
#171=DIRECTION('',(-1.,0.,0.));
#172=VECTOR('',#171,10.);
#173=LINE('',#170,#172);
#174=EDGE_CURVE('',#115,#169,#173,.T.);
#175=ORIENTED_EDGE('E11',*,*,#174,.T.);
#176=CARTESIAN_POINT('',(-27.000000013569,9.308669669653,3.));
#177=VERTEX_POINT('',#176);
#178=CARTESIAN_POINT('',(-27.000000013569,9.308669669653,0.));
#179=DIRECTION('',(0.,0.,1.));
#180=VECTOR('',#179,3.);
#181=LINE('',#178,#180);
#182=EDGE_CURVE('',#169,#177,#181,.T.);
#183=ORIENTED_EDGE('E35',*,*,#182,.T.);
#184=CARTESIAN_POINT('',(-17.000000013569,9.308669669653,3.));
#185=DIRECTION('',(-1.,0.,0.));
#186=VECTOR('',#185,10.);
#187=LINE('',#184,#186);
#188=EDGE_CURVE('',#123,#177,#187,.T.);
#189=ORIENTED_EDGE('E23',*,*,#188,.F.);
#190=ORIENTED_EDGE('E23',*,*,#128,.F.);
#191=EDGE_LOOP('',(#175,#183,#189,#190));
#192=FACE_OUTER_BOUND('',#191,.T.);
#193=ADVANCED_FACE('F13',(#192),#167,.T.);
#194=CARTESIAN_POINT('',(27.000000013569,0.65416684128096,1.5));
#195=DIRECTION('',(0.,1.,0.));
#196=DIRECTION('',(1.,0.,0.));
#197=AXIS2_PLACEMENT_3D('',#194,#196,#195);
#198=PLANE('',#197);
#199=CARTESIAN_POINT('',(27.000000013569,-2.800335987091,3.));
#200=VERTEX_POINT('',#199);
#201=CARTESIAN_POINT('',(27.000000013569,-2.8003359870911,3.));
#202=DIRECTION('',(0.,1.,0.));
#203=VECTOR('',#202,12.109005656744);
#204=LINE('',#201,#203);
#205=EDGE_CURVE('',#200,#44,#204,.T.);
#206=ORIENTED_EDGE('E18',*,*,#205,.F.);
#207=CARTESIAN_POINT('',(27.000000013569,-2.800335987091,0.));
#208=VERTEX_POINT('',#207);
#209=CARTESIAN_POINT('',(27.000000013569,-2.8003359870911,0.));
#210=DIRECTION('',(0.,0.,1.));
#211=VECTOR('',#210,3.);
#212=LINE('',#209,#211);
#213=EDGE_CURVE('',#208,#200,#212,.T.);
#214=ORIENTED_EDGE('E49',*,*,#213,.F.);
#215=CARTESIAN_POINT('',(27.000000013569,-2.8003359870911,0.));
#216=DIRECTION('',(0.,1.,0.));
#217=VECTOR('',#216,12.109005656744);
#218=LINE('',#215,#217);
#219=EDGE_CURVE('',#208,#26,#218,.T.);
#220=ORIENTED_EDGE('E6',*,*,#219,.T.);
#221=ORIENTED_EDGE('E6',*,*,#55,.T.);
#222=EDGE_LOOP('',(#206,#214,#220,#221));
#223=FACE_OUTER_BOUND('',#222,.T.);
#224=ADVANCED_FACE('F8',(#223),#198,.T.);
#225=CARTESIAN_POINT('',(-27.000000013569,0.65416684128096,1.5));
#226=DIRECTION('',(0.,-1.,0.));
#227=DIRECTION('',(-1.,0.,0.));
#228=AXIS2_PLACEMENT_3D('',#225,#227,#226);
#229=PLANE('',#228);
#230=CARTESIAN_POINT('',(-27.000000013569,-2.8003359870911,0.));
#231=VERTEX_POINT('',#230);
#232=CARTESIAN_POINT('',(-27.000000013569,9.308669669653,0.));
#233=DIRECTION('',(0.,-1.,0.));
#234=VECTOR('',#233,12.109005656744);
#235=LINE('',#232,#234);
#236=EDGE_CURVE('',#169,#231,#235,.T.);
#237=ORIENTED_EDGE('E12',*,*,#236,.T.);
#238=CARTESIAN_POINT('',(-27.000000013569,-2.8003359870911,3.));
#239=VERTEX_POINT('',#238);
#240=CARTESIAN_POINT('',(-27.000000013569,-2.800335987091,0.));
#241=DIRECTION('',(0.,0.,1.));
#242=VECTOR('',#241,3.);
#243=LINE('',#240,#242);
#244=EDGE_CURVE('',#231,#239,#243,.T.);
#245=ORIENTED_EDGE('E52',*,*,#244,.T.);
#246=CARTESIAN_POINT('',(-27.000000013569,9.308669669653,3.));
#247=DIRECTION('',(0.,-1.,0.));
#248=VECTOR('',#247,12.109005656744);
#249=LINE('',#246,#248);
#250=EDGE_CURVE('',#177,#239,#249,.T.);
#251=ORIENTED_EDGE('E24',*,*,#250,.F.);
#252=ORIENTED_EDGE('E24',*,*,#182,.F.);
#253=EDGE_LOOP('',(#237,#245,#251,#252));
#254=FACE_OUTER_BOUND('',#253,.T.);
#255=ADVANCED_FACE('F14',(#254),#229,.T.);
#256=CARTESIAN_POINT('',(-32.15,36.512164023085,3.));
#257=DIRECTION('',(0.,-1.,0.));
#258=DIRECTION('',(-1.,0.,0.));
#259=AXIS2_PLACEMENT_3D('',#256,#258,#257);
#260=PLANE('',#259);
#261=CARTESIAN_POINT('',(-32.15,-7.9503359735225,3.));
#262=VERTEX_POINT('',#261);
#263=CARTESIAN_POINT('',(-32.15,-7.9503359735225,0.));
#264=VERTEX_POINT('',#263);
#265=CARTESIAN_POINT('',(-32.15,-7.9503359735225,3.));
#266=DIRECTION('',(0.,2.9605947323337E-16,-1.));
#267=VECTOR('',#266,3.);
#268=LINE('',#265,#267);
#269=EDGE_CURVE('',#262,#264,#268,.T.);
#270=ORIENTED_EDGE('E55',*,*,#269,.T.);
#271=CARTESIAN_POINT('',(-32.15,-15.500335987091,0.));
#272=VERTEX_POINT('',#271);
#273=CARTESIAN_POINT('',(-32.15,-7.9503359735225,0.));
#274=DIRECTION('',(9.4111620461343E-16,-1.,0.));
#275=VECTOR('',#274,7.5500000135686);
#276=LINE('',#273,#275);
#277=EDGE_CURVE('',#264,#272,#276,.T.);
#278=ORIENTED_EDGE('E2',*,*,#277,.T.);
#279=CARTESIAN_POINT('',(-32.15,-15.500335987091,6.));
#280=VERTEX_POINT('',#279);
#281=CARTESIAN_POINT('',(-32.15,-15.500335987091,0.));
#282=DIRECTION('',(0.,0.,1.));
#283=VECTOR('',#282,6.);
#284=LINE('',#281,#283);
#285=EDGE_CURVE('',#272,#280,#284,.T.);
#286=ORIENTED_EDGE('E26',*,*,#285,.T.);
#287=CARTESIAN_POINT('',(-32.15,-7.9503359735225,6.));
#288=VERTEX_POINT('',#287);
#289=CARTESIAN_POINT('',(-32.15,-7.9503359735225,6.));
#290=DIRECTION('',(0.,-1.,0.));
#291=VECTOR('',#290,7.5500000135686);
#292=LINE('',#289,#291);
#293=EDGE_CURVE('',#288,#280,#292,.T.);
#294=ORIENTED_EDGE('E76',*,*,#293,.F.);
#295=CARTESIAN_POINT('',(-32.15,-7.9503359735225,3.));
#296=DIRECTION('',(0.,0.,1.));
#297=VECTOR('',#296,3.);
#298=LINE('',#295,#297);
#299=EDGE_CURVE('',#262,#288,#298,.T.);
#300=ORIENTED_EDGE('E79',*,*,#299,.F.);
#301=EDGE_LOOP('',(#270,#278,#286,#294,#300));
#302=FACE_OUTER_BOUND('',#301,.T.);
#303=ADVANCED_FACE('F40',(#302),#260,.T.);
#304=CARTESIAN_POINT('',(32.15,36.512164023086,3.));
#305=DIRECTION('',(0.,1.,0.));
#306=DIRECTION('',(1.,0.,0.));
#307=AXIS2_PLACEMENT_3D('',#304,#306,#305);
#308=PLANE('',#307);
#309=CARTESIAN_POINT('',(32.15,-15.500335987091,0.));
#310=VERTEX_POINT('',#309);
#311=CARTESIAN_POINT('',(32.15,-7.9503359735224,-7.105427357601E-15));
#312=VERTEX_POINT('',#311);
#313=CARTESIAN_POINT('',(32.15,-15.500335987091,0.));
#314=DIRECTION('',(-1.8822324092269E-15,1.,0.));
#315=VECTOR('',#314,7.5500000135686);
#316=LINE('',#313,#315);
#317=EDGE_CURVE('',#310,#312,#316,.T.);
#318=ORIENTED_EDGE('E4',*,*,#317,.T.);
#319=CARTESIAN_POINT('',(32.15,-7.9503359735225,3.));
#320=VERTEX_POINT('',#319);
#321=CARTESIAN_POINT('',(32.15,-7.9503359735225,-1.4210854715202E-14));
#322=DIRECTION('',(0.,0.,1.));
#323=VECTOR('',#322,3.);
#324=LINE('',#321,#323);
#325=EDGE_CURVE('',#312,#320,#324,.T.);
#326=ORIENTED_EDGE('E56',*,*,#325,.T.);
#327=CARTESIAN_POINT('',(32.15,-7.9503359735225,6.));
#328=VERTEX_POINT('',#327);
#329=CARTESIAN_POINT('',(32.15,-7.9503359735225,3.));
#330=DIRECTION('',(0.,0.,1.));
#331=VECTOR('',#330,3.);
#332=LINE('',#329,#331);
#333=EDGE_CURVE('',#320,#328,#332,.T.);
#334=ORIENTED_EDGE('E78',*,*,#333,.T.);
#335=CARTESIAN_POINT('',(32.15,-15.500335987091,6.));
#336=VERTEX_POINT('',#335);
#337=CARTESIAN_POINT('',(32.15,-15.500335987091,6.));
#338=DIRECTION('',(0.,1.,0.));
#339=VECTOR('',#338,7.5500000135686);
#340=LINE('',#337,#339);
#341=EDGE_CURVE('',#336,#328,#340,.T.);
#342=ORIENTED_EDGE('E74',*,*,#341,.F.);
#343=CARTESIAN_POINT('',(32.15,-15.500335987091,0.));
#344=DIRECTION('',(-2.368475785867E-15,0.,1.));
#345=VECTOR('',#344,6.);
#346=LINE('',#343,#345);
#347=EDGE_CURVE('',#310,#336,#346,.T.);
#348=ORIENTED_EDGE('E27',*,*,#347,.F.);
#349=EDGE_LOOP('',(#318,#326,#334,#342,#348));
#350=FACE_OUTER_BOUND('',#349,.T.);
#351=ADVANCED_FACE('F41',(#350),#308,.T.);
#352=CARTESIAN_POINT('',(29.600000013569,-5.4003359870911,1.5));
#353=DIRECTION('',(-0.70710678118655,0.70710678118655,0.));
#354=DIRECTION('',(0.70710678118655,0.70710678118655,-0.));
#355=AXIS2_PLACEMENT_3D('',#352,#354,#353);
#356=PLANE('',#355);
#357=ORIENTED_EDGE('',*,*,#213,.T.);
#358=CARTESIAN_POINT('',(32.15,-7.9503359735225,3.));
#359=DIRECTION('',(-0.70710678118655,0.70710678118655,0.));
#360=VECTOR('',#359,7.2831998270326);
#361=LINE('',#358,#360);
#362=EDGE_CURVE('',#320,#200,#361,.T.);
#363=ORIENTED_EDGE('E54',*,*,#362,.F.);
#364=ORIENTED_EDGE('E54',*,*,#325,.F.);
#365=CARTESIAN_POINT('',(32.15,-7.9503359735224,0.));
#366=DIRECTION('',(-0.70710678118655,0.70710678118655,0.));
#367=VECTOR('',#366,7.2831998270325);
#368=LINE('',#365,#367);
#369=EDGE_CURVE('',#312,#208,#368,.T.);
#370=ORIENTED_EDGE('E53',*,*,#369,.T.);
#371=EDGE_LOOP('',(#357,#363,#364,#370));
#372=FACE_OUTER_BOUND('',#371,.T.);
#373=ADVANCED_FACE('F20',(#372),#356,.T.);
#374=CARTESIAN_POINT('',(-29.600000013569,-5.4003359870911,1.5));
#375=DIRECTION('',(-0.70710678118655,-0.70710678118655,0.));
#376=DIRECTION('',(-0.70710678118655,0.70710678118655,0.));
#377=AXIS2_PLACEMENT_3D('',#374,#376,#375);
#378=PLANE('',#377);
#379=CARTESIAN_POINT('',(-27.000000013569,-2.8003359870911,0.));
#380=DIRECTION('',(-0.70710678118655,-0.70710678118655,0.));
#381=VECTOR('',#380,7.2831998270326);
#382=LINE('',#379,#381);
#383=EDGE_CURVE('',#231,#264,#382,.T.);
#384=ORIENTED_EDGE('E50',*,*,#383,.T.);
#385=ORIENTED_EDGE('E50',*,*,#269,.F.);
#386=CARTESIAN_POINT('',(-27.000000013569,-2.8003359870911,3.));
#387=DIRECTION('',(-0.70710678118655,-0.70710678118655,0.));
#388=VECTOR('',#387,7.2831998270326);
#389=LINE('',#386,#388);
#390=EDGE_CURVE('',#239,#262,#389,.T.);
#391=ORIENTED_EDGE('E51',*,*,#390,.F.);
#392=ORIENTED_EDGE('E51',*,*,#244,.F.);
#393=EDGE_LOOP('',(#384,#385,#391,#392));
#394=FACE_OUTER_BOUND('',#393,.T.);
#395=ADVANCED_FACE('F19',(#394),#378,.T.);
#396=CARTESIAN_POINT('',(-27.,-10.500335987091,0.));
#397=DIRECTION('',(1.,-2.6316397620744E-15,0.));
#398=DIRECTION('',(0.,0.,1.));
#399=AXIS2_PLACEMENT_3D('',#396,#398,#397);
#400=CYLINDRICAL_SURFACE('',#399,1.35);
#401=CARTESIAN_POINT('',(-25.65,-10.500335987091,0.));
#402=VERTEX_POINT('',#401);
#403=CARTESIAN_POINT('',(-27.,-10.500335987091,0.));
#404=DIRECTION('',(1.,-2.0258372333917E-15,-0.));
#405=DIRECTION('',(0.,0.,-1.));
#406=AXIS2_PLACEMENT_3D('',#403,#405,#404);
#407=CIRCLE('',#406,1.35);
#408=EDGE_CURVE('',#402,#402,#407,.T.);
#409=ORIENTED_EDGE('E40',*,*,#408,.F.);
#410=CARTESIAN_POINT('',(-25.65,-10.500335987091,6.));
#411=VERTEX_POINT('',#410);
#412=CARTESIAN_POINT('',(-25.65,-10.500335987091,0.));
#413=DIRECTION('',(5.9211894646675E-16,5.9211894646675E-16,1.));
#414=VECTOR('',#413,6.);
#415=LINE('',#412,#414);
#416=EDGE_CURVE('',#402,#411,#415,.T.);
#417=ORIENTED_EDGE('E42',*,*,#416,.T.);
#418=CARTESIAN_POINT('',(-27.,-10.500335987091,6.));
#419=DIRECTION('',(1.,-2.0258372333917E-15,4.8734069668045E-16));
#420=DIRECTION('',(4.8734069668045E-16,-5.0645930834794E-16,-1.));
#421=AXIS2_PLACEMENT_3D('',#418,#420,#419);
#422=CIRCLE('',#421,1.35);
#423=EDGE_CURVE('',#411,#411,#422,.T.);
#424=ORIENTED_EDGE('E61',*,*,#423,.T.);
#425=ORIENTED_EDGE('E61',*,*,#416,.F.);
#426=EDGE_LOOP('',(#409,#417,#424,#425));
#427=FACE_OUTER_BOUND('',#426,.F.);
#428=ADVANCED_FACE('F29',(#427),#400,.F.);
#429=CARTESIAN_POINT('',(27.,-10.500335987091,0.));
#430=DIRECTION('',(1.,0.,0.));
#431=DIRECTION('',(0.,0.,1.));
#432=AXIS2_PLACEMENT_3D('',#429,#431,#430);
#433=CYLINDRICAL_SURFACE('',#432,1.35);
#434=CARTESIAN_POINT('',(28.35,-10.500335987091,0.));
#435=VERTEX_POINT('',#434);
#436=CARTESIAN_POINT('',(27.,-10.500335987091,0.));
#437=DIRECTION('',(1.,-2.0258372333917E-15,-0.));
#438=DIRECTION('',(0.,0.,-1.));
#439=AXIS2_PLACEMENT_3D('',#436,#438,#437);
#440=CIRCLE('',#439,1.35);
#441=EDGE_CURVE('',#435,#435,#440,.T.);
#442=ORIENTED_EDGE('E43',*,*,#441,.F.);
#443=CARTESIAN_POINT('',(28.35,-10.500335987091,6.));
#444=VERTEX_POINT('',#443);
#445=CARTESIAN_POINT('',(28.35,-10.500335987091,0.));
#446=DIRECTION('',(5.9211894646675E-16,5.9211894646675E-16,1.));
#447=VECTOR('',#446,6.);
#448=LINE('',#445,#447);
#449=EDGE_CURVE('',#435,#444,#448,.T.);
#450=ORIENTED_EDGE('E45',*,*,#449,.T.);
#451=CARTESIAN_POINT('',(27.,-10.500335987091,6.));
#452=DIRECTION('',(1.,2.4681823217058E-31,4.8734069668045E-16));
#453=DIRECTION('',(4.8734069668045E-16,-5.0645930834793E-16,-1.));
#454=AXIS2_PLACEMENT_3D('',#451,#453,#452);
#455=CIRCLE('',#454,1.35);
#456=EDGE_CURVE('',#444,#444,#455,.T.);
#457=ORIENTED_EDGE('E67',*,*,#456,.T.);
#458=ORIENTED_EDGE('E67',*,*,#449,.F.);
#459=EDGE_LOOP('',(#442,#450,#457,#458));
#460=FACE_OUTER_BOUND('',#459,.F.);
#461=ADVANCED_FACE('F30',(#460),#433,.F.);
#462=CARTESIAN_POINT('',(2.8183310109133E-14,0.67916684806525,3.));
#463=DIRECTION('',(1.,2.7626078373254E-17,-1.3813039186627E-17));
#464=DIRECTION('',(1.3813039186627E-17,2.5730868801568E-17,1.));
#465=AXIS2_PLACEMENT_3D('',#462,#464,#463);
#466=PLANE('',#465);
#467=ORIENTED_EDGE('',*,*,#362,.T.);
#468=ORIENTED_EDGE('',*,*,#205,.T.);
#469=ORIENTED_EDGE('',*,*,#49,.T.);
#470=ORIENTED_EDGE('',*,*,#71,.T.);
#471=CARTESIAN_POINT('',(23.91819858998,-7.9503359735225,3.));
#472=VERTEX_POINT('',#471);
#473=CARTESIAN_POINT('',(23.91819858998,-7.9503359735225,3.));
#474=DIRECTION('',(-1.,0.,-6.4191451711756E-17));
#475=VECTOR('',#474,6.9181985764116);
#476=LINE('',#473,#475);
#477=EDGE_CURVE('',#472,#66,#476,.T.);
#478=ORIENTED_EDGE('E89',*,*,#477,.F.);
#479=CARTESIAN_POINT('',(30.08180141002,-7.9503359735225,3.));
#480=VERTEX_POINT('',#479);
#481=CARTESIAN_POINT('',(27.,-10.500335987091,3.));
#482=DIRECTION('',(0.77045035250495,0.63750000339215,1.1102230246252E-16));
#483=DIRECTION('',(0.,0.,1.));
#484=AXIS2_PLACEMENT_3D('',#481,#483,#482);
#485=CIRCLE('',#484,4.);
#486=EDGE_CURVE('',#480,#472,#485,.T.);
#487=ORIENTED_EDGE('E63',*,*,#486,.F.);
#488=CARTESIAN_POINT('',(32.15,-7.9503359735225,3.));
#489=DIRECTION('',(-1.,0.,2.1472271183317E-16));
#490=VECTOR('',#489,2.0681985899801);
#491=LINE('',#488,#490);
#492=EDGE_CURVE('',#320,#480,#491,.T.);
#493=ORIENTED_EDGE('E71',*,*,#492,.F.);
#494=EDGE_LOOP('',(#467,#468,#469,#470,#478,#487,#493));
#495=FACE_OUTER_BOUND('',#494,.T.);
#496=CARTESIAN_POINT('',(23.649999999573,5.3086684809796,3.));
#497=VERTEX_POINT('',#496);
#498=CARTESIAN_POINT('',(21.999999999574,5.3086684809796,3.));
#499=DIRECTION('',(1.,-1.6575031909569E-15,1.99366648642E-16));
#500=DIRECTION('',(1.99366648642E-16,-2.0718789886961E-16,-1.));
#501=AXIS2_PLACEMENT_3D('',#498,#500,#499);
#502=CIRCLE('',#501,1.65);
#503=EDGE_CURVE('',#497,#497,#502,.T.);
#504=ORIENTED_EDGE('E47',*,*,#503,.T.);
#505=EDGE_LOOP('',(#504));
#506=FACE_BOUND('',#505,.T.);
#507=ADVANCED_FACE('F42',(#495,#506),#466,.T.);
#508=ORIENTED_EDGE('',*,*,#188,.T.);
#509=ORIENTED_EDGE('',*,*,#250,.T.);
#510=ORIENTED_EDGE('',*,*,#390,.T.);
#511=CARTESIAN_POINT('',(-30.08180141002,-7.9503359735225,3.));
#512=VERTEX_POINT('',#511);
#513=CARTESIAN_POINT('',(-30.08180141002,-7.9503359735225,3.));
#514=DIRECTION('',(-1.,0.,0.));
#515=VECTOR('',#514,2.0681985899802);
#516=LINE('',#513,#515);
#517=EDGE_CURVE('',#512,#262,#516,.T.);
#518=ORIENTED_EDGE('E88',*,*,#517,.F.);
#519=CARTESIAN_POINT('',(-23.91819858998,-7.9503359735225,3.));
#520=VERTEX_POINT('',#519);
#521=CARTESIAN_POINT('',(-27.,-10.500335987091,3.));
#522=DIRECTION('',(0.77045035250496,0.63750000339215,-1.1102230246252E-16));
#523=DIRECTION('',(0.,0.,1.));
#524=AXIS2_PLACEMENT_3D('',#521,#523,#522);
#525=CIRCLE('',#524,4.);
#526=EDGE_CURVE('',#520,#512,#525,.T.);
#527=ORIENTED_EDGE('E57',*,*,#526,.F.);
#528=CARTESIAN_POINT('',(-17.000000013569,-7.9503359735225,3.));
#529=DIRECTION('',(-1.,0.,0.));
#530=VECTOR('',#529,6.9181985764115);
#531=LINE('',#528,#530);
#532=EDGE_CURVE('',#131,#520,#531,.T.);
#533=ORIENTED_EDGE('E93',*,*,#532,.F.);
#534=ORIENTED_EDGE('E93',*,*,#136,.T.);
#535=EDGE_LOOP('',(#508,#509,#510,#518,#527,#533,#534));
#536=FACE_OUTER_BOUND('',#535,.T.);
#537=CARTESIAN_POINT('',(-20.349999999574,5.3086684809796,3.));
#538=VERTEX_POINT('',#537);
#539=CARTESIAN_POINT('',(-21.999999999574,5.3086684809796,3.));
#540=DIRECTION('',(1.,-8.2875159547844E-16,1.99366648642E-16));
#541=DIRECTION('',(1.99366648642E-16,-2.0718789886961E-16,-1.));
#542=AXIS2_PLACEMENT_3D('',#539,#541,#540);
#543=CIRCLE('',#542,1.65);
#544=EDGE_CURVE('',#538,#538,#543,.T.);
#545=ORIENTED_EDGE('E38',*,*,#544,.T.);
#546=EDGE_LOOP('',(#545));
#547=FACE_BOUND('',#546,.T.);
#548=ADVANCED_FACE('F43',(#536,#547),#466,.T.);
#549=CARTESIAN_POINT('',(27.,-10.500335987091,3.));
#550=DIRECTION('',(1.,8.8817841970013E-16,-1.1102230246252E-16));
#551=DIRECTION('',(0.,0.,1.));
#552=AXIS2_PLACEMENT_3D('',#549,#551,#550);
#553=CYLINDRICAL_SURFACE('',#552,4.);
#554=ORIENTED_EDGE('',*,*,#486,.T.);
#555=CARTESIAN_POINT('',(23.91819858998,-7.9503359735225,6.));
#556=VERTEX_POINT('',#555);
#557=CARTESIAN_POINT('',(23.91819858998,-7.9503359735225,6.));
#558=DIRECTION('',(3.5527136788005E-15,0.,-1.));
#559=VECTOR('',#558,3.);
#560=LINE('',#557,#559);
#561=EDGE_CURVE('',#556,#472,#560,.T.);
#562=ORIENTED_EDGE('E97',*,*,#561,.F.);
#563=CARTESIAN_POINT('',(30.08180141002,-7.9503359735224,6.));
#564=VERTEX_POINT('',#563);
#565=CARTESIAN_POINT('',(27.,-10.500335987091,6.));
#566=DIRECTION('',(0.77045035250495,0.63750000339215,0.));
#567=DIRECTION('',(0.,0.,1.));
#568=AXIS2_PLACEMENT_3D('',#565,#567,#566);
#569=CIRCLE('',#568,4.);
#570=EDGE_CURVE('',#564,#556,#569,.T.);
#571=ORIENTED_EDGE('E64',*,*,#570,.F.);
#572=CARTESIAN_POINT('',(30.08180141002,-7.9503359735225,3.));
#573=DIRECTION('',(0.,0.,1.));
#574=VECTOR('',#573,3.);
#575=LINE('',#572,#574);
#576=EDGE_CURVE('',#480,#564,#575,.T.);
#577=ORIENTED_EDGE('E98',*,*,#576,.F.);
#578=EDGE_LOOP('',(#554,#562,#571,#577));
#579=FACE_OUTER_BOUND('',#578,.T.);
#580=ADVANCED_FACE('F23',(#579),#553,.T.);
#581=CARTESIAN_POINT('',(-27.,-10.500335987091,3.));
#582=DIRECTION('',(1.,8.8817841970013E-16,-1.1102230246252E-16));
#583=DIRECTION('',(0.,0.,1.));
#584=AXIS2_PLACEMENT_3D('',#581,#583,#582);
#585=CYLINDRICAL_SURFACE('',#584,4.);
#586=ORIENTED_EDGE('',*,*,#526,.T.);
#587=CARTESIAN_POINT('',(-30.08180141002,-7.9503359735225,6.));
#588=VERTEX_POINT('',#587);
#589=CARTESIAN_POINT('',(-30.08180141002,-7.9503359735225,6.));
#590=DIRECTION('',(-3.5527136788005E-15,0.,-1.));
#591=VECTOR('',#590,3.);
#592=LINE('',#589,#591);
#593=EDGE_CURVE('',#588,#512,#592,.T.);
#594=ORIENTED_EDGE('E96',*,*,#593,.F.);
#595=CARTESIAN_POINT('',(-23.91819858998,-7.9503359735225,6.));
#596=VERTEX_POINT('',#595);
#597=CARTESIAN_POINT('',(-27.,-10.500335987091,6.));
#598=DIRECTION('',(0.77045035250495,0.63750000339215,0.));
#599=DIRECTION('',(0.,0.,1.));
#600=AXIS2_PLACEMENT_3D('',#597,#599,#598);
#601=CIRCLE('',#600,4.);
#602=EDGE_CURVE('',#596,#588,#601,.T.);
#603=ORIENTED_EDGE('E58',*,*,#602,.F.);
#604=CARTESIAN_POINT('',(-23.91819858998,-7.9503359735225,3.));
#605=DIRECTION('',(0.,0.,1.));
#606=VECTOR('',#605,3.);
#607=LINE('',#604,#606);
#608=EDGE_CURVE('',#520,#596,#607,.T.);
#609=ORIENTED_EDGE('E95',*,*,#608,.F.);
#610=EDGE_LOOP('',(#586,#594,#603,#609));
#611=FACE_OUTER_BOUND('',#610,.T.);
#612=ADVANCED_FACE('F21',(#611),#585,.T.);
#613=CARTESIAN_POINT('',(0.,-7.9503359735225,4.5));
#614=DIRECTION('',(-1.,0.,0.));
#615=DIRECTION('',(0.,1.,-0.));
#616=AXIS2_PLACEMENT_3D('',#613,#615,#614);
#617=PLANE('',#616);
#618=ORIENTED_EDGE('',*,*,#492,.T.);
#619=ORIENTED_EDGE('',*,*,#576,.T.);
#620=CARTESIAN_POINT('',(32.15,-7.9503359735225,6.));
#621=DIRECTION('',(-1.,4.2944542366633E-16,0.));
#622=VECTOR('',#621,2.0681985899801);
#623=LINE('',#620,#622);
#624=EDGE_CURVE('',#328,#564,#623,.T.);
#625=ORIENTED_EDGE('E75',*,*,#624,.F.);
#626=ORIENTED_EDGE('E75',*,*,#333,.F.);
#627=EDGE_LOOP('',(#618,#619,#625,#626));
#628=FACE_OUTER_BOUND('',#627,.T.);
#629=ADVANCED_FACE('F45',(#628),#617,.T.);
#630=CARTESIAN_POINT('',(-30.08180141002,-7.9503359735225,6.));
#631=DIRECTION('',(-1.,0.,0.));
#632=VECTOR('',#631,2.0681985899802);
#633=LINE('',#630,#632);
#634=EDGE_CURVE('',#588,#288,#633,.T.);
#635=ORIENTED_EDGE('E87',*,*,#634,.F.);
#636=ORIENTED_EDGE('E87',*,*,#593,.T.);
#637=ORIENTED_EDGE('E87',*,*,#517,.T.);
#638=ORIENTED_EDGE('E87',*,*,#299,.T.);
#639=EDGE_LOOP('',(#635,#636,#637,#638));
#640=FACE_OUTER_BOUND('',#639,.T.);
#641=ADVANCED_FACE('F47',(#640),#617,.T.);
#642=CARTESIAN_POINT('',(7.105427357601E-15,-15.500335987091,3.));
#643=DIRECTION('',(1.,0.,0.));
#644=DIRECTION('',(0.,-1.,0.));
#645=AXIS2_PLACEMENT_3D('',#642,#644,#643);
#646=PLANE('',#645);
#647=CARTESIAN_POINT('',(-6.,-15.500335987091,1.0749401573195E-15));
#648=VERTEX_POINT('',#647);
#649=CARTESIAN_POINT('',(-32.15,-15.500335987091,0.));
#650=DIRECTION('',(1.,0.,0.));
#651=VECTOR('',#650,26.15);
#652=LINE('',#649,#651);
#653=EDGE_CURVE('',#272,#648,#652,.T.);
#654=ORIENTED_EDGE('E3',*,*,#653,.T.);
#655=CARTESIAN_POINT('',(-6.,-15.500335987091,5.));
#656=VERTEX_POINT('',#655);
#657=CARTESIAN_POINT('',(-6.,-15.500335987091,5.));
#658=DIRECTION('',(-1.7763568394003E-16,0.,-1.));
#659=VECTOR('',#658,5.);
#660=LINE('',#657,#659);
#661=EDGE_CURVE('',#656,#648,#660,.T.);
#662=ORIENTED_EDGE('E114',*,*,#661,.F.);
#663=CARTESIAN_POINT('',(6.,-15.500335987091,5.));
#664=VERTEX_POINT('',#663);
#665=CARTESIAN_POINT('',(6.,-15.500335987091,5.));
#666=DIRECTION('',(-1.,0.,1.4802973661669E-16));
#667=VECTOR('',#666,12.);
#668=LINE('',#665,#667);
#669=EDGE_CURVE('',#664,#656,#668,.T.);
#670=ORIENTED_EDGE('E113',*,*,#669,.F.);
#671=CARTESIAN_POINT('',(6.,-15.500335987091,-1.3482345535935E-15));
#672=VERTEX_POINT('',#671);
#673=CARTESIAN_POINT('',(6.,-15.500335987091,-3.5527136788005E-15));
#674=DIRECTION('',(1.7763568394002E-16,0.,1.));
#675=VECTOR('',#674,5.);
#676=LINE('',#673,#675);
#677=EDGE_CURVE('',#672,#664,#676,.T.);
#678=ORIENTED_EDGE('E112',*,*,#677,.F.);
#679=CARTESIAN_POINT('',(6.,-15.500335987091,0.));
#680=DIRECTION('',(1.,0.,0.));
#681=VECTOR('',#680,26.15);
#682=LINE('',#679,#681);
#683=EDGE_CURVE('',#672,#310,#682,.T.);
#684=ORIENTED_EDGE('E106',*,*,#683,.T.);
#685=ORIENTED_EDGE('E106',*,*,#347,.T.);
#686=CARTESIAN_POINT('',(-32.15,-15.500335987091,6.));
#687=DIRECTION('',(1.,0.,0.));
#688=VECTOR('',#687,64.3);
#689=LINE('',#686,#688);
#690=EDGE_CURVE('',#280,#336,#689,.T.);
#691=ORIENTED_EDGE('E73',*,*,#690,.F.);
#692=ORIENTED_EDGE('E73',*,*,#285,.F.);
#693=EDGE_LOOP('',(#654,#662,#670,#678,#684,#685,#691,#692));
#694=FACE_OUTER_BOUND('',#693,.T.);
#695=ADVANCED_FACE('F39',(#694),#646,.T.);
#696=CARTESIAN_POINT('',(-6.,-8.000335987091,2.5));
#697=DIRECTION('',(0.,0.,1.));
#698=DIRECTION('',(1.,0.,-0.));
#699=AXIS2_PLACEMENT_3D('',#696,#698,#697);
#700=PLANE('',#699);
#701=ORIENTED_EDGE('',*,*,#661,.T.);
#702=CARTESIAN_POINT('',(-6.,-8.000335987091,1.6229664991885E-15));
#703=VERTEX_POINT('',#702);
#704=CARTESIAN_POINT('',(-6.,-8.000335987091,1.6229664991885E-15));
#705=DIRECTION('',(0.,-1.,0.));
#706=VECTOR('',#705,7.5);
#707=LINE('',#704,#706);
#708=EDGE_CURVE('',#703,#648,#707,.T.);
#709=ORIENTED_EDGE('E104',*,*,#708,.F.);
#710=CARTESIAN_POINT('',(-6.,-8.000335987091,5.));
#711=VERTEX_POINT('',#710);
#712=CARTESIAN_POINT('',(-6.,-8.000335987091,1.6229664991885E-15));
#713=DIRECTION('',(1.7763568394003E-16,0.,1.));
#714=VECTOR('',#713,5.);
#715=LINE('',#712,#714);
#716=EDGE_CURVE('',#703,#711,#715,.T.);
#717=ORIENTED_EDGE('E101',*,*,#716,.T.);
#718=CARTESIAN_POINT('',(-6.,-8.000335987091,5.));
#719=DIRECTION('',(0.,-1.,0.));
#720=VECTOR('',#719,7.5);
#721=LINE('',#718,#720);
#722=EDGE_CURVE('',#711,#656,#721,.T.);
#723=ORIENTED_EDGE('E122',*,*,#722,.T.);
#724=EDGE_LOOP('',(#701,#709,#717,#723));
#725=FACE_OUTER_BOUND('',#724,.T.);
#726=ADVANCED_FACE('F55',(#725),#700,.T.);
#727=CARTESIAN_POINT('',(-17.000000013569,-7.9503359735225,6.));
#728=DIRECTION('',(-1.,0.,0.));
#729=VECTOR('',#728,6.9181985764115);
#730=LINE('',#727,#729);
#731=EDGE_CURVE('',#139,#596,#730,.T.);
#732=ORIENTED_EDGE('E125',*,*,#731,.F.);
#733=ORIENTED_EDGE('E125',*,*,#144,.F.);
#734=ORIENTED_EDGE('E125',*,*,#532,.T.);
#735=ORIENTED_EDGE('E125',*,*,#608,.T.);
#736=EDGE_LOOP('',(#732,#733,#734,#735));
#737=FACE_OUTER_BOUND('',#736,.T.);
#738=ADVANCED_FACE('F58',(#737),#617,.T.);
#739=CARTESIAN_POINT('',(6.,-8.000335987091,2.5));
#740=DIRECTION('',(0.,0.,-1.));
#741=DIRECTION('',(-1.,-0.,-0.));
#742=AXIS2_PLACEMENT_3D('',#739,#741,#740);
#743=PLANE('',#742);
#744=CARTESIAN_POINT('',(6.,-8.000335987091,1.5339034021171E-16));
#745=VERTEX_POINT('',#744);
#746=CARTESIAN_POINT('',(6.,-8.000335987091,1.5339034021171E-16));
#747=DIRECTION('',(0.,-1.,0.));
#748=VECTOR('',#747,7.5);
#749=LINE('',#746,#748);
#750=EDGE_CURVE('',#745,#672,#749,.T.);
#751=ORIENTED_EDGE('E103',*,*,#750,.T.);
#752=ORIENTED_EDGE('E103',*,*,#677,.T.);
#753=CARTESIAN_POINT('',(6.,-8.000335987091,5.));
#754=VERTEX_POINT('',#753);
#755=CARTESIAN_POINT('',(6.,-8.000335987091,5.));
#756=DIRECTION('',(0.,-1.,0.));
#757=VECTOR('',#756,7.5);
#758=LINE('',#755,#757);
#759=EDGE_CURVE('',#754,#664,#758,.T.);
#760=ORIENTED_EDGE('E131',*,*,#759,.F.);
#761=CARTESIAN_POINT('',(6.,-8.000335987091,5.));
#762=DIRECTION('',(0.,0.,-1.));
#763=VECTOR('',#762,5.);
#764=LINE('',#761,#763);
#765=EDGE_CURVE('',#754,#745,#764,.T.);
#766=ORIENTED_EDGE('E108',*,*,#765,.T.);
#767=EDGE_LOOP('',(#751,#752,#760,#766));
#768=FACE_OUTER_BOUND('',#767,.T.);
#769=ADVANCED_FACE('F52',(#768),#743,.T.);
#770=ORIENTED_EDGE('',*,*,#561,.T.);
#771=ORIENTED_EDGE('',*,*,#477,.T.);
#772=ORIENTED_EDGE('',*,*,#102,.T.);
#773=CARTESIAN_POINT('',(23.91819858998,-7.9503359735225,6.));
#774=DIRECTION('',(-1.,1.2838290342351E-16,0.));
#775=VECTOR('',#774,6.9181985764116);
#776=LINE('',#773,#775);
#777=EDGE_CURVE('',#556,#91,#776,.T.);
#778=ORIENTED_EDGE('E94',*,*,#777,.F.);
#779=EDGE_LOOP('',(#770,#771,#772,#778));
#780=FACE_OUTER_BOUND('',#779,.T.);
#781=ADVANCED_FACE('F62',(#780),#617,.T.);
#782=CARTESIAN_POINT('',(7.105427357601E-15,-8.000335987091,7.));
#783=DIRECTION('',(-1.,0.,0.));
#784=DIRECTION('',(0.,1.,-0.));
#785=AXIS2_PLACEMENT_3D('',#782,#784,#783);
#786=PLANE('',#785);
#787=ORIENTED_EDGE('',*,*,#88,.F.);
#788=CARTESIAN_POINT('',(17.000000013569,-8.000335987091,0.));
#789=DIRECTION('',(-1.,0.,0.));
#790=VECTOR('',#789,11.000000013569);
#791=LINE('',#788,#790);
#792=EDGE_CURVE('',#75,#745,#791,.T.);
#793=ORIENTED_EDGE('E9',*,*,#792,.T.);
#794=ORIENTED_EDGE('E9',*,*,#765,.F.);
#795=CARTESIAN_POINT('',(6.,-8.000335987091,5.));
#796=DIRECTION('',(-1.,0.,0.));
#797=VECTOR('',#796,12.);
#798=LINE('',#795,#797);
#799=EDGE_CURVE('',#754,#711,#798,.T.);
#800=ORIENTED_EDGE('E137',*,*,#799,.T.);
#801=ORIENTED_EDGE('E137',*,*,#716,.F.);
#802=CARTESIAN_POINT('',(-6.,-8.000335987091,0.));
#803=DIRECTION('',(-1.,0.,0.));
#804=VECTOR('',#803,11.000000013569);
#805=LINE('',#802,#804);
#806=EDGE_CURVE('',#703,#113,#805,.T.);
#807=ORIENTED_EDGE('E109',*,*,#806,.T.);
#808=ORIENTED_EDGE('E109',*,*,#158,.T.);
#809=CARTESIAN_POINT('',(17.000000013569,-8.000335987091,6.));
#810=DIRECTION('',(-1.,0.,0.));
#811=VECTOR('',#810,34.000000027137);
#812=LINE('',#809,#811);
#813=EDGE_CURVE('',#83,#147,#812,.T.);
#814=ORIENTED_EDGE('E135',*,*,#813,.F.);
#815=EDGE_LOOP('',(#787,#793,#794,#800,#801,#807,#808,#814));
#816=FACE_OUTER_BOUND('',#815,.T.);
#817=ADVANCED_FACE('F64',(#816),#786,.T.);
#818=CARTESIAN_POINT('',(8.8817841970013E-16,-8.000335987091,5.));
#819=DIRECTION('',(1.,0.,-1.4802973661669E-16));
#820=DIRECTION('',(-1.4802973661669E-16,-0.,-1.));
#821=AXIS2_PLACEMENT_3D('',#818,#820,#819);
#822=PLANE('',#821);
#823=ORIENTED_EDGE('',*,*,#669,.T.);
#824=ORIENTED_EDGE('',*,*,#722,.F.);
#825=ORIENTED_EDGE('',*,*,#799,.F.);
#826=ORIENTED_EDGE('',*,*,#759,.T.);
#827=EDGE_LOOP('',(#823,#824,#825,#826));
#828=FACE_OUTER_BOUND('',#827,.T.);
#829=ADVANCED_FACE('F54',(#828),#822,.T.);
#830=CARTESIAN_POINT('',(-0.16391016151376,16.649664012909,6.));
#831=DIRECTION('',(1.,0.,0.));
#832=DIRECTION('',(0.,0.,1.));
#833=AXIS2_PLACEMENT_3D('',#830,#832,#831);
#834=PLANE('',#833);
#835=ORIENTED_EDGE('',*,*,#634,.T.);
#836=ORIENTED_EDGE('',*,*,#293,.T.);
#837=ORIENTED_EDGE('',*,*,#690,.T.);
#838=ORIENTED_EDGE('',*,*,#341,.T.);
#839=ORIENTED_EDGE('',*,*,#624,.T.);
#840=ORIENTED_EDGE('',*,*,#570,.T.);
#841=ORIENTED_EDGE('',*,*,#777,.T.);
#842=ORIENTED_EDGE('',*,*,#96,.F.);
#843=ORIENTED_EDGE('',*,*,#813,.T.);
#844=ORIENTED_EDGE('',*,*,#152,.F.);
#845=ORIENTED_EDGE('',*,*,#731,.T.);
#846=ORIENTED_EDGE('',*,*,#602,.T.);
#847=EDGE_LOOP('',(#835,#836,#837,#838,#839,#840,#841,#842,#843,#844,#845,#846));
#848=FACE_OUTER_BOUND('',#847,.T.);
#849=ORIENTED_EDGE('',*,*,#423,.T.);
#850=EDGE_LOOP('',(#849));
#851=FACE_BOUND('',#850,.T.);
#852=ORIENTED_EDGE('',*,*,#456,.T.);
#853=EDGE_LOOP('',(#852));
#854=FACE_BOUND('',#853,.T.);
#855=ADVANCED_FACE('F44',(#848,#851,#854),#834,.T.);
#856=CARTESIAN_POINT('',(-21.999999999574,5.3086684809796,0.));
#857=DIRECTION('',(1.,-1.0765799026668E-15,0.));
#858=DIRECTION('',(0.,0.,1.));
#859=AXIS2_PLACEMENT_3D('',#856,#858,#857);
#860=CYLINDRICAL_SURFACE('',#859,1.65);
#861=ORIENTED_EDGE('',*,*,#544,.F.);
#862=CARTESIAN_POINT('',(-20.349999999574,5.3086684809796,2.));
#863=VERTEX_POINT('',#862);
#864=CARTESIAN_POINT('',(-20.349999999574,5.3086684809796,2.));
#865=DIRECTION('',(0.,0.,1.));
#866=VECTOR('',#865,1.);
#867=LINE('',#864,#866);
#868=EDGE_CURVE('',#863,#538,#867,.T.);
#869=ORIENTED_EDGE('E39',*,*,#868,.F.);
#870=CARTESIAN_POINT('',(-21.999999999574,5.3086684809796,2.));
#871=DIRECTION('',(1.,-4.5675416979892E-15,1.6326380457619E-17));
#872=DIRECTION('',(1.6326380457618E-17,-2.8547135612432E-16,-1.));
#873=AXIS2_PLACEMENT_3D('',#870,#872,#871);
#874=CIRCLE('',#873,1.65);
#875=EDGE_CURVE('',#863,#863,#874,.T.);
#876=ORIENTED_EDGE('E140',*,*,#875,.T.);
#877=ORIENTED_EDGE('E140',*,*,#868,.T.);
#878=EDGE_LOOP('',(#861,#869,#876,#877));
#879=FACE_OUTER_BOUND('',#878,.T.);
#880=ADVANCED_FACE('F15',(#879),#860,.F.);
#881=CARTESIAN_POINT('',(21.999999999573,5.3086684809796,0.));
#882=DIRECTION('',(1.,-1.6148698540002E-15,0.));
#883=DIRECTION('',(0.,0.,1.));
#884=AXIS2_PLACEMENT_3D('',#881,#883,#882);
#885=CYLINDRICAL_SURFACE('',#884,1.65);
#886=ORIENTED_EDGE('',*,*,#503,.F.);
#887=CARTESIAN_POINT('',(23.649999999573,5.3086684809796,2.));
#888=VERTEX_POINT('',#887);
#889=CARTESIAN_POINT('',(23.649999999573,5.3086684809796,2.));
#890=DIRECTION('',(0.,0.,1.));
#891=VECTOR('',#890,1.);
#892=LINE('',#889,#891);
#893=EDGE_CURVE('',#888,#497,#892,.T.);
#894=ORIENTED_EDGE('E48',*,*,#893,.F.);
#895=CARTESIAN_POINT('',(21.999999999574,5.3086684809796,2.));
#896=DIRECTION('',(1.,-7.6125694966486E-16,1.6326380457618E-17));
#897=DIRECTION('',(1.6326380457618E-17,-2.8547135612432E-16,-1.));
#898=AXIS2_PLACEMENT_3D('',#895,#897,#896);
#899=CIRCLE('',#898,1.65);
#900=EDGE_CURVE('',#888,#888,#899,.T.);
#901=ORIENTED_EDGE('E143',*,*,#900,.T.);
#902=ORIENTED_EDGE('E143',*,*,#893,.T.);
#903=EDGE_LOOP('',(#886,#894,#901,#902));
#904=FACE_OUTER_BOUND('',#903,.T.);
#905=ADVANCED_FACE('F18',(#904),#885,.F.);
#906=CARTESIAN_POINT('',(1.4553856905597E-14,-3.145833158719,0.));
#907=DIRECTION('',(1.,-2.7540416114733E-17,0.));
#908=DIRECTION('',(-0.,-0.,1.));
#909=AXIS2_PLACEMENT_3D('',#906,#908,#907);
#910=PLANE('',#909);
#911=ORIENTED_EDGE('',*,*,#317,.T.);
#912=ORIENTED_EDGE('',*,*,#369,.T.);
#913=ORIENTED_EDGE('',*,*,#219,.T.);
#914=ORIENTED_EDGE('',*,*,#33,.T.);
#915=ORIENTED_EDGE('',*,*,#80,.T.);
#916=ORIENTED_EDGE('',*,*,#792,.T.);
#917=ORIENTED_EDGE('',*,*,#750,.T.);
#918=ORIENTED_EDGE('',*,*,#683,.T.);
#919=EDGE_LOOP('',(#911,#912,#913,#914,#915,#916,#917,#918));
#920=FACE_OUTER_BOUND('',#919,.F.);
#921=ORIENTED_EDGE('',*,*,#441,.T.);
#922=EDGE_LOOP('',(#921));
#923=FACE_BOUND('',#922,.F.);
#924=CARTESIAN_POINT('',(25.649999999573,5.3086684809796,0.));
#925=VERTEX_POINT('',#924);
#926=CARTESIAN_POINT('',(21.999999999573,5.3086684809796,0.));
#927=DIRECTION('',(1.,-1.7206492697904E-15,-0.));
#928=DIRECTION('',(0.,0.,-1.));
#929=AXIS2_PLACEMENT_3D('',#926,#928,#927);
#930=CIRCLE('',#929,3.65);
#931=EDGE_CURVE('',#925,#925,#930,.T.);
#932=ORIENTED_EDGE('E142',*,*,#931,.T.);
#933=EDGE_LOOP('',(#932));
#934=FACE_BOUND('',#933,.F.);
#935=ADVANCED_FACE('F50',(#920,#923,#934),#910,.F.);
#936=ORIENTED_EDGE('',*,*,#383,.T.);
#937=ORIENTED_EDGE('',*,*,#277,.T.);
#938=ORIENTED_EDGE('',*,*,#653,.T.);
#939=ORIENTED_EDGE('',*,*,#708,.F.);
#940=ORIENTED_EDGE('',*,*,#806,.T.);
#941=ORIENTED_EDGE('',*,*,#120,.T.);
#942=ORIENTED_EDGE('',*,*,#174,.T.);
#943=ORIENTED_EDGE('',*,*,#236,.T.);
#944=EDGE_LOOP('',(#936,#937,#938,#939,#940,#941,#942,#943));
#945=FACE_OUTER_BOUND('',#944,.F.);
#946=ORIENTED_EDGE('',*,*,#408,.T.);
#947=EDGE_LOOP('',(#946));
#948=FACE_BOUND('',#947,.F.);
#949=CARTESIAN_POINT('',(-18.349999999574,5.3086684809796,0.));
#950=VERTEX_POINT('',#949);
#951=CARTESIAN_POINT('',(-21.999999999574,5.3086684809796,0.));
#952=DIRECTION('',(1.,-6.8825970791617E-16,-0.));
#953=DIRECTION('',(0.,0.,-1.));
#954=AXIS2_PLACEMENT_3D('',#951,#953,#952);
#955=CIRCLE('',#954,3.65);
#956=EDGE_CURVE('',#950,#950,#955,.T.);
#957=ORIENTED_EDGE('E139',*,*,#956,.T.);
#958=EDGE_LOOP('',(#957));
#959=FACE_BOUND('',#958,.F.);
#960=ADVANCED_FACE('F51',(#945,#948,#959),#910,.F.);
#961=CARTESIAN_POINT('',(21.999999999574,5.3086684809796,2.));
#962=DIRECTION('',(1.,-1.2166827667125E-15,0.));
#963=DIRECTION('',(-0.,-0.,-1.));
#964=AXIS2_PLACEMENT_3D('',#961,#963,#962);
#965=CONICAL_SURFACE('',#964,1.65,0.78539816339745);
#966=CARTESIAN_POINT('',(25.649999999573,5.3086684809796,0.));
#967=DIRECTION('',(-0.70710678118655,1.256073966947E-15,0.70710678118655));
#968=VECTOR('',#967,2.8284271247462);
#969=LINE('',#966,#968);
#970=EDGE_CURVE('',#925,#888,#969,.T.);
#971=ORIENTED_EDGE('E141',*,*,#970,.T.);
#972=ORIENTED_EDGE('E141',*,*,#900,.F.);
#973=ORIENTED_EDGE('E141',*,*,#970,.F.);
#974=ORIENTED_EDGE('E141',*,*,#931,.T.);
#975=EDGE_LOOP('',(#971,#972,#973,#974));
#976=FACE_OUTER_BOUND('',#975,.T.);
#977=ADVANCED_FACE('F67',(#976),#965,.F.);
#978=CARTESIAN_POINT('',(-21.999999999574,5.3086684809796,2.));
#979=DIRECTION('',(1.,-1.7033558733975E-15,0.));
#980=DIRECTION('',(-0.,-0.,-1.));
#981=AXIS2_PLACEMENT_3D('',#978,#980,#979);
#982=CONICAL_SURFACE('',#981,1.65,0.78539816339745);
#983=CARTESIAN_POINT('',(-18.349999999574,5.3086684809796,0.));
#984=DIRECTION('',(-0.70710678118655,6.2803698347351E-16,0.70710678118655));
#985=VECTOR('',#984,2.8284271247462);
#986=LINE('',#983,#985);
#987=EDGE_CURVE('',#950,#863,#986,.T.);
#988=ORIENTED_EDGE('E138',*,*,#987,.T.);
#989=ORIENTED_EDGE('E138',*,*,#875,.F.);
#990=ORIENTED_EDGE('E138',*,*,#987,.F.);
#991=ORIENTED_EDGE('E138',*,*,#956,.T.);
#992=EDGE_LOOP('',(#988,#989,#990,#991));
#993=FACE_OUTER_BOUND('',#992,.T.);
#994=ADVANCED_FACE('F68',(#993),#982,.F.);
#995=CLOSED_SHELL('',(#59,#106,#162,#193,#224,#255,#303,#351,#373,#395,#428,#461,#507,#548,#580,#612,#629,#641,#695,#726,#738,#769,#781,#817,#829,#855,#880,#905,#935,#960,#977,#994));
#996=COLOUR_RGB('',0.745098,0.901961,0.960784);
#997=FILL_AREA_STYLE_COLOUR('',#996);
#998=FILL_AREA_STYLE('',(#997));
#999=SURFACE_STYLE_FILL_AREA(#998);
#1000=SURFACE_SIDE_STYLE('',(#999));
#1001=SURFACE_STYLE_USAGE(.BOTH.,#1000);
#1002=PRESENTATION_STYLE_ASSIGNMENT((#1001));
#1003=OVER_RIDING_STYLED_ITEM('',(#1002),#59,#995);
#1004=OVER_RIDING_STYLED_ITEM('',(#1002),#106,#995);
#1005=OVER_RIDING_STYLED_ITEM('',(#1002),#162,#995);
#1006=OVER_RIDING_STYLED_ITEM('',(#1002),#193,#995);
#1007=OVER_RIDING_STYLED_ITEM('',(#1002),#224,#995);
#1008=OVER_RIDING_STYLED_ITEM('',(#1002),#255,#995);
#1009=OVER_RIDING_STYLED_ITEM('',(#1002),#303,#995);
#1010=OVER_RIDING_STYLED_ITEM('',(#1002),#351,#995);
#1011=OVER_RIDING_STYLED_ITEM('',(#1002),#373,#995);
#1012=OVER_RIDING_STYLED_ITEM('',(#1002),#395,#995);
#1013=OVER_RIDING_STYLED_ITEM('',(#1002),#428,#995);
#1014=OVER_RIDING_STYLED_ITEM('',(#1002),#461,#995);
#1015=OVER_RIDING_STYLED_ITEM('',(#1002),#507,#995);
#1016=OVER_RIDING_STYLED_ITEM('',(#1002),#548,#995);
#1017=OVER_RIDING_STYLED_ITEM('',(#1002),#580,#995);
#1018=OVER_RIDING_STYLED_ITEM('',(#1002),#612,#995);
#1019=OVER_RIDING_STYLED_ITEM('',(#1002),#629,#995);
#1020=OVER_RIDING_STYLED_ITEM('',(#1002),#641,#995);
#1021=OVER_RIDING_STYLED_ITEM('',(#1002),#695,#995);
#1022=OVER_RIDING_STYLED_ITEM('',(#1002),#726,#995);
#1023=OVER_RIDING_STYLED_ITEM('',(#1002),#738,#995);
#1024=OVER_RIDING_STYLED_ITEM('',(#1002),#769,#995);
#1025=OVER_RIDING_STYLED_ITEM('',(#1002),#781,#995);
#1026=OVER_RIDING_STYLED_ITEM('',(#1002),#817,#995);
#1027=OVER_RIDING_STYLED_ITEM('',(#1002),#829,#995);
#1028=OVER_RIDING_STYLED_ITEM('',(#1002),#855,#995);
#1029=OVER_RIDING_STYLED_ITEM('',(#1002),#880,#995);
#1030=OVER_RIDING_STYLED_ITEM('',(#1002),#905,#995);
#1031=OVER_RIDING_STYLED_ITEM('',(#1002),#935,#995);
#1032=OVER_RIDING_STYLED_ITEM('',(#1002),#960,#995);
#1033=OVER_RIDING_STYLED_ITEM('',(#1002),#977,#995);
#1034=OVER_RIDING_STYLED_ITEM('',(#1002),#994,#995);
#1035=MANIFOLD_SOLID_BREP('S1',#995);
#1036=ADVANCED_BREP_SHAPE_REPRESENTATION('none',(#1035),#5);
#1037=SHAPE_REPRESENTATION_RELATIONSHIP('none','generic',#18,#1036);
#1038=CARTESIAN_POINT('',(27.000000013569,9.308669669653,0.));
#1039=DIRECTION('',(0.,-1.,0.));
#1040=VECTOR('',#1039,17.309005656744);
#1041=LINE('',#1038,#1040);
#1042=TRIMMED_CURVE('',#1041,(PARAMETER_VALUE(0.)),(PARAMETER_VALUE(1.0)),.T.,.PARAMETER.);
#1043=COLOUR_RGB('',0.,0.,0.000000);
#1044=DRAUGHTING_PRE_DEFINED_CURVE_FONT('continuous');
#1045=CURVE_STYLE('None', #1044, 'POSITIVE_LENGTH_MEASURE( 0 )', #1043);
#1046=PRESENTATION_STYLE_ASSIGNMENT((#1045));
#1047=STYLED_ITEM('None', (#1046), #1042);
#1048=CARTESIAN_POINT('',(17.000000013569,9.308669669653,0.));
#1049=DIRECTION('',(1.,0.,0.));
#1050=VECTOR('',#1049,10.);
#1051=LINE('',#1048,#1050);
#1052=TRIMMED_CURVE('',#1051,(PARAMETER_VALUE(0.)),(PARAMETER_VALUE(1.0)),.T.,.PARAMETER.);
#1053=STYLED_ITEM('None', (#1046), #1052);
#1054=CARTESIAN_POINT('',(17.000000013569,-8.0003359870911,0.));
#1055=DIRECTION('',(0.,1.,0.));
#1056=VECTOR('',#1055,17.309005656744);
#1057=LINE('',#1054,#1056);
#1058=TRIMMED_CURVE('',#1057,(PARAMETER_VALUE(0.)),(PARAMETER_VALUE(1.0)),.T.,.PARAMETER.);
#1059=STYLED_ITEM('None', (#1046), #1058);
#1060=CARTESIAN_POINT('',(21.999999999574,5.3086684809796,0.));
#1061=DIRECTION('',(1.,3.3150063819138E-15,-0.));
#1062=DIRECTION('',(0.,0.,1.));
#1063=AXIS2_PLACEMENT_3D('',#1060,#1062,#1061);
#1064=CIRCLE('',#1063,1.65);
#1065=TRIMMED_CURVE('',#1064,(PARAMETER_VALUE(0.)),(PARAMETER_VALUE(6.2831853071796)),.T.,.PARAMETER.);
#1066=STYLED_ITEM('None', (#1046), #1065);
#1067=CARTESIAN_POINT('',(-27.000000013569,9.308669669653,0.));
#1068=DIRECTION('',(0.,-1.,0.));
#1069=VECTOR('',#1068,17.309005656744);
#1070=LINE('',#1067,#1069);
#1071=TRIMMED_CURVE('',#1070,(PARAMETER_VALUE(0.)),(PARAMETER_VALUE(1.0)),.T.,.PARAMETER.);
#1072=STYLED_ITEM('None', (#1046), #1071);
#1073=CARTESIAN_POINT('',(-17.000000013569,9.308669669653,0.));
#1074=DIRECTION('',(-1.,0.,0.));
#1075=VECTOR('',#1074,10.);
#1076=LINE('',#1073,#1075);
#1077=TRIMMED_CURVE('',#1076,(PARAMETER_VALUE(0.)),(PARAMETER_VALUE(1.0)),.T.,.PARAMETER.);
#1078=STYLED_ITEM('None', (#1046), #1077);
#1079=CARTESIAN_POINT('',(-17.000000013569,-8.0003359870911,0.));
#1080=DIRECTION('',(0.,1.,0.));
#1081=VECTOR('',#1080,17.309005656744);
#1082=LINE('',#1079,#1081);
#1083=TRIMMED_CURVE('',#1082,(PARAMETER_VALUE(0.)),(PARAMETER_VALUE(1.0)),.T.,.PARAMETER.);
#1084=STYLED_ITEM('None', (#1046), #1083);
#1085=CARTESIAN_POINT('',(-21.999999999574,5.3086684809796,0.));
#1086=DIRECTION('',(1.,-1.6575031909569E-15,-0.));
#1087=DIRECTION('',(0.,-0.,1.));
#1088=AXIS2_PLACEMENT_3D('',#1085,#1087,#1086);
#1089=CIRCLE('',#1088,1.65);
#1090=TRIMMED_CURVE('',#1089,(PARAMETER_VALUE(0.)),(PARAMETER_VALUE(6.2831853071796)),.T.,.PARAMETER.);
#1091=STYLED_ITEM('None', (#1046), #1090);
#1092=CARTESIAN_POINT('',(-32.15,-8.000335987091,0.));
#1093=DIRECTION('',(0.,-1.,0.));
#1094=VECTOR('',#1093,7.5);
#1095=LINE('',#1092,#1094);
#1096=TRIMMED_CURVE('',#1095,(PARAMETER_VALUE(0.)),(PARAMETER_VALUE(1.0)),.T.,.PARAMETER.);
#1097=STYLED_ITEM('None', (#1046), #1096);
#1098=CARTESIAN_POINT('',(32.15,-8.000335987091,0.));
#1099=DIRECTION('',(-1.,0.,0.));
#1100=VECTOR('',#1099,5.1499999864314);
#1101=LINE('',#1098,#1100);
#1102=TRIMMED_CURVE('',#1101,(PARAMETER_VALUE(0.)),(PARAMETER_VALUE(1.0)),.T.,.PARAMETER.);
#1103=STYLED_ITEM('None', (#1046), #1102);
#1104=CARTESIAN_POINT('',(32.15,-15.500335987091,0.));
#1105=DIRECTION('',(0.,1.,0.));
#1106=VECTOR('',#1105,7.5);
#1107=LINE('',#1104,#1106);
#1108=TRIMMED_CURVE('',#1107,(PARAMETER_VALUE(0.)),(PARAMETER_VALUE(1.0)),.T.,.PARAMETER.);
#1109=STYLED_ITEM('None', (#1046), #1108);
#1110=CARTESIAN_POINT('',(-32.15,-15.500335987091,0.));
#1111=DIRECTION('',(1.,0.,0.));
#1112=VECTOR('',#1111,64.3);
#1113=LINE('',#1110,#1112);
#1114=TRIMMED_CURVE('',#1113,(PARAMETER_VALUE(0.)),(PARAMETER_VALUE(1.0)),.T.,.PARAMETER.);
#1115=STYLED_ITEM('None', (#1046), #1114);
#1116=CARTESIAN_POINT('',(27.,-10.500335987091,0.));
#1117=DIRECTION('',(1.,-2.0258372333917E-15,-0.));
#1118=DIRECTION('',(0.,-0.,1.));
#1119=AXIS2_PLACEMENT_3D('',#1116,#1118,#1117);
#1120=CIRCLE('',#1119,1.35);
#1121=TRIMMED_CURVE('',#1120,(PARAMETER_VALUE(0.)),(PARAMETER_VALUE(6.2831853071796)),.T.,.PARAMETER.);
#1122=STYLED_ITEM('None', (#1046), #1121);
#1123=CARTESIAN_POINT('',(-27.,-10.500335987091,0.));
#1124=DIRECTION('',(1.,-2.0258372333917E-15,-0.));
#1125=DIRECTION('',(0.,-0.,1.));
#1126=AXIS2_PLACEMENT_3D('',#1123,#1125,#1124);
#1127=CIRCLE('',#1126,1.35);
#1128=TRIMMED_CURVE('',#1127,(PARAMETER_VALUE(0.)),(PARAMETER_VALUE(6.2831853071796)),.T.,.PARAMETER.);
#1129=STYLED_ITEM('None', (#1046), #1128);
#1130=CARTESIAN_POINT('',(-27.000000013569,-8.000335987091,0.));
#1131=DIRECTION('',(-1.,0.,0.));
#1132=VECTOR('',#1131,5.1499999864314);
#1133=LINE('',#1130,#1132);
#1134=TRIMMED_CURVE('',#1133,(PARAMETER_VALUE(0.)),(PARAMETER_VALUE(1.0)),.T.,.PARAMETER.);
#1135=STYLED_ITEM('None', (#1046), #1134);
#1136=CARTESIAN_POINT('',(17.000000013569,-8.000335987091,0.));
#1137=DIRECTION('',(-1.,0.,0.));
#1138=VECTOR('',#1137,34.000000027137);
#1139=LINE('',#1136,#1138);
#1140=TRIMMED_CURVE('',#1139,(PARAMETER_VALUE(0.)),(PARAMETER_VALUE(1.0)),.T.,.PARAMETER.);
#1141=STYLED_ITEM('None', (#1046), #1140);
#1142=CARTESIAN_POINT('',(-27.,-10.500335987091,3.));
#1143=DIRECTION('',(1.,-2.0258372333917E-15,-0.));
#1144=DIRECTION('',(0.,-0.,1.));
#1145=AXIS2_PLACEMENT_3D('',#1142,#1144,#1143);
#1146=CIRCLE('',#1145,1.35);
#1147=TRIMMED_CURVE('',#1146,(PARAMETER_VALUE(0.)),(PARAMETER_VALUE(6.2831853071796)),.T.,.PARAMETER.);
#1148=STYLED_ITEM('None', (#1046), #1147);
#1149=CARTESIAN_POINT('',(-27.,-10.500335987091,3.));
#1150=DIRECTION('',(1.,6.8372006626971E-16,-0.));
#1151=DIRECTION('',(0.,0.,1.));
#1152=AXIS2_PLACEMENT_3D('',#1149,#1151,#1150);
#1153=CIRCLE('',#1152,4.);
#1154=TRIMMED_CURVE('',#1153,(PARAMETER_VALUE(0.)),(PARAMETER_VALUE(6.2831853071796)),.T.,.PARAMETER.);
#1155=STYLED_ITEM('None', (#1046), #1154);
#1156=CARTESIAN_POINT('',(27.,-10.500335987091,3.));
#1157=DIRECTION('',(1.,-0.,-0.));
#1158=DIRECTION('',(0.,-0.,1.));
#1159=AXIS2_PLACEMENT_3D('',#1156,#1158,#1157);
#1160=CIRCLE('',#1159,1.35);
#1161=TRIMMED_CURVE('',#1160,(PARAMETER_VALUE(0.)),(PARAMETER_VALUE(6.2831853071796)),.T.,.PARAMETER.);
#1162=STYLED_ITEM('None', (#1046), #1161);
#1163=CARTESIAN_POINT('',(27.,-10.500335987091,3.));
#1164=DIRECTION('',(1.,6.8372006626971E-16,-0.));
#1165=DIRECTION('',(0.,0.,1.));
#1166=AXIS2_PLACEMENT_3D('',#1163,#1165,#1164);
#1167=CIRCLE('',#1166,4.);
#1168=TRIMMED_CURVE('',#1167,(PARAMETER_VALUE(0.)),(PARAMETER_VALUE(6.2831853071796)),.T.,.PARAMETER.);
#1169=STYLED_ITEM('None', (#1046), #1168);
#1170=CARTESIAN_POINT('',(-32.15,-15.500335987091,3.));
#1171=DIRECTION('',(1.,0.,0.));
#1172=VECTOR('',#1171,64.3);
#1173=LINE('',#1170,#1172);
#1174=TRIMMED_CURVE('',#1173,(PARAMETER_VALUE(0.)),(PARAMETER_VALUE(1.0)),.T.,.PARAMETER.);
#1175=STYLED_ITEM('None', (#1046), #1174);
#1176=CARTESIAN_POINT('',(32.15,-15.500335987091,3.));
#1177=DIRECTION('',(0.,1.,0.));
#1178=VECTOR('',#1177,7.5500000135686);
#1179=LINE('',#1176,#1178);
#1180=TRIMMED_CURVE('',#1179,(PARAMETER_VALUE(0.)),(PARAMETER_VALUE(1.0)),.T.,.PARAMETER.);
#1181=STYLED_ITEM('None', (#1046), #1180);
#1182=CARTESIAN_POINT('',(32.15,-7.9503359735225,3.));
#1183=DIRECTION('',(-1.,0.,0.));
#1184=VECTOR('',#1183,64.3);
#1185=LINE('',#1182,#1184);
#1186=TRIMMED_CURVE('',#1185,(PARAMETER_VALUE(0.)),(PARAMETER_VALUE(1.0)),.T.,.PARAMETER.);
#1187=STYLED_ITEM('None', (#1046), #1186);
#1188=CARTESIAN_POINT('',(-32.15,-7.9503359735225,3.));
#1189=DIRECTION('',(0.,-1.,0.));
#1190=VECTOR('',#1189,7.5500000135686);
#1191=LINE('',#1188,#1190);
#1192=TRIMMED_CURVE('',#1191,(PARAMETER_VALUE(0.)),(PARAMETER_VALUE(1.0)),.T.,.PARAMETER.);
#1193=STYLED_ITEM('None', (#1046), #1192);
#1194=CARTESIAN_POINT('',(-27.,-10.500335987091,3.));
#1195=DIRECTION('',(1.,-2.0258372333917E-15,-0.));
#1196=DIRECTION('',(0.,-0.,1.));
#1197=AXIS2_PLACEMENT_3D('',#1194,#1196,#1195);
#1198=CIRCLE('',#1197,1.35);
#1199=TRIMMED_CURVE('',#1198,(PARAMETER_VALUE(0.)),(PARAMETER_VALUE(6.2831853071796)),.T.,.PARAMETER.);
#1200=STYLED_ITEM('None', (#1046), #1199);
#1201=CARTESIAN_POINT('',(27.,-10.500335987091,3.));
#1202=DIRECTION('',(1.,-2.0258372333917E-15,-0.));
#1203=DIRECTION('',(0.,-0.,1.));
#1204=AXIS2_PLACEMENT_3D('',#1201,#1203,#1202);
#1205=CIRCLE('',#1204,1.35);
#1206=TRIMMED_CURVE('',#1205,(PARAMETER_VALUE(0.)),(PARAMETER_VALUE(6.2831853071796)),.T.,.PARAMETER.);
#1207=STYLED_ITEM('None', (#1046), #1206);
#1208=CARTESIAN_POINT('',(-6.,-8.000335987091,5.));
#1209=DIRECTION('',(1.,0.,-1.4802973661669E-16));
#1210=VECTOR('',#1209,12.);
#1211=LINE('',#1208,#1210);
#1212=TRIMMED_CURVE('',#1211,(PARAMETER_VALUE(0.)),(PARAMETER_VALUE(1.0)),.T.,.PARAMETER.);
#1213=STYLED_ITEM('None', (#1046), #1212);
#1214=CARTESIAN_POINT('',(6.,-8.000335987091,5.));
#1215=DIRECTION('',(-1.7763568394003E-16,0.,-1.));
#1216=VECTOR('',#1215,5.);
#1217=LINE('',#1214,#1216);
#1218=TRIMMED_CURVE('',#1217,(PARAMETER_VALUE(0.)),(PARAMETER_VALUE(1.0)),.T.,.PARAMETER.);
#1219=STYLED_ITEM('None', (#1046), #1218);
#1220=CARTESIAN_POINT('',(6.,-8.000335987091,1.5339034021171E-16));
#1221=DIRECTION('',(-1.,0.,1.2246467991474E-16));
#1222=VECTOR('',#1221,12.);
#1223=LINE('',#1220,#1222);
#1224=TRIMMED_CURVE('',#1223,(PARAMETER_VALUE(0.)),(PARAMETER_VALUE(1.0)),.T.,.PARAMETER.);
#1225=STYLED_ITEM('None', (#1046), #1224);
#1226=CARTESIAN_POINT('',(-6.,-8.000335987091,1.6229664991885E-15));
#1227=DIRECTION('',(1.7763568394003E-16,0.,1.));
#1228=VECTOR('',#1227,5.);
#1229=LINE('',#1226,#1228);
#1230=TRIMMED_CURVE('',#1229,(PARAMETER_VALUE(0.)),(PARAMETER_VALUE(1.0)),.T.,.PARAMETER.);
#1231=STYLED_ITEM('None', (#1046), #1230);
#1232=CARTESIAN_POINT('',(3.0616169978684E-16,-8.000335987091,2.5));
#1233=COLOUR_RGB('',0.376471,0.376471,0.376471);
#1234=DRAUGHTING_PRE_DEFINED_CURVE_FONT('continuous');
#1235=CURVE_STYLE('None', #1234, 'POSITIVE_LENGTH_MEASURE( 0 )', #1233);
#1236=PRESENTATION_STYLE_ASSIGNMENT((#1235));
#1237=STYLED_ITEM('None', (#1236), #1232);
#1238=GEOMETRIC_CURVE_SET('None',(#1042,#1052,#1058,#1065,#1071,#1077,#1083,#1090,#1096,#1102,#1108,#1114,#1121,#1128,#1134,#1140,#1147,#1154,#1161,#1168,#1174,#1180,#1186,#1192,#1199,#1206,#1212,#1218,#1224,#1230,#1232));
#1239=GEOMETRICALLY_BOUNDED_WIREFRAME_SHAPE_REPRESENTATION('None',(#1238),#5);
#1240=SHAPE_REPRESENTATION_RELATIONSHIP('None','None',#18,#1239);
#1241=PRESENTATION_LAYER_ASSIGNMENT('Í¼²ã0000','',(#1035,#1042,#1052,#1058,#1065,#1071,#1077,#1083,#1090,#1096,#1102,#1108,#1114,#1121,#1128,#1134,#1140,#1147,#1154,#1161,#1168,#1174,#1180,#1186,#1192,#1199,#1206,#1212,#1218,#1224,#1230,#1232));
#1242=MECHANICAL_DESIGN_GEOMETRIC_PRESENTATION_REPRESENTATION('',(#1003,#1004,#1005,#1006,#1007,#1008,#1009,#1010,#1011,#1012,#1013,#1014,#1015,#1016,#1017,#1018,#1019,#1020,#1021,#1022,#1023,#1024,#1025,#1026,#1027,#1028,#1029,#1030,#1031,#1032,#1033,#1034,#1047,#1053,#1059,#1066,#1072,#1078,#1084,#1091,#1097,#1103,#1109,#1115,#1122,#1129,#1135,#1141,#1148,#1155,#1162,#1169,#1175,#1181,#1187,#1193,#1200,#1207,#1213,#1219,#1225,#1231,#1237),#5);
ENDSEC;
END-ISO-10303-21;
